<?xml version="1.0" encoding="UTF-8" standalone="no"?>
<!DOCTYPE svg PUBLIC "-//W3C//DTD SVG 1.1//EN"
 "http://www.w3.org/Graphics/SVG/1.1/DTD/svg11.dtd">
<!-- Generated by graphviz version 2.36.0 (20140111.2315)
 -->
<!-- Title: controllers_diagram Pages: 1 -->
<svg width="484pt" height="521pt"
 viewBox="0.00 0.00 483.64 521.00" xmlns="http://www.w3.org/2000/svg" xmlns:xlink="http://www.w3.org/1999/xlink">
<g id="graph0" class="graph" transform="scale(1 1) rotate(0) translate(4 517)">
<title>controllers_diagram</title>
<polygon fill="none" stroke="none" points="-4,4 -4,-517 479.642,-517 479.642,4 -4,4"/>
<!-- _diagram_info -->
<g id="node1" class="node"><title>_diagram_info</title>
<text text-anchor="start" x="8" y="-410.6" font-family="Times,serif" font-size="13.00">Controllers diagram</text>
<text text-anchor="start" x="8" y="-397.6" font-family="Times,serif" font-size="13.00">Date: Jan 01 2017 &#45; 16:08</text>
<text text-anchor="start" x="8" y="-384.6" font-family="Times,serif" font-size="13.00">Migration version: 20170101142920</text>
<text text-anchor="start" x="8" y="-371.6" font-family="Times,serif" font-size="13.00">Generated by RailRoady 1.5.2</text>
<text text-anchor="start" x="8" y="-358.6" font-family="Times,serif" font-size="13.00">http://railroady.prestonlee.com</text>
</g>
<!-- ApplicationController -->
<g id="node2" class="node"><title>ApplicationController</title>
<path fill="none" stroke="black" d="M348,-160.5C348,-160.5 463.642,-160.5 463.642,-160.5 469.642,-160.5 475.642,-166.5 475.642,-172.5 475.642,-172.5 475.642,-240.5 475.642,-240.5 475.642,-246.5 469.642,-252.5 463.642,-252.5 463.642,-252.5 348,-252.5 348,-252.5 342,-252.5 336,-246.5 336,-240.5 336,-240.5 336,-172.5 336,-172.5 336,-166.5 342,-160.5 348,-160.5"/>
<text text-anchor="middle" x="405.821" y="-237.3" font-family="Times,serif" font-size="14.00">ApplicationController</text>
<polyline fill="none" stroke="black" points="336,-230.5 475.642,-230.5 "/>
<polyline fill="none" stroke="black" points="336,-206.5 475.642,-206.5 "/>
<polyline fill="none" stroke="black" points="336,-182.5 475.642,-182.5 "/>
<text text-anchor="start" x="344" y="-167.3" font-family="Times,serif" font-size="14.00">_layout</text>
</g>
<!-- CommentsController -->
<g id="node3" class="node"><title>CommentsController</title>
<path fill="none" stroke="black" d="M188,-160.5C188,-160.5 298.214,-160.5 298.214,-160.5 304.214,-160.5 310.214,-166.5 310.214,-172.5 310.214,-172.5 310.214,-308.5 310.214,-308.5 310.214,-314.5 304.214,-320.5 298.214,-320.5 298.214,-320.5 188,-320.5 188,-320.5 182,-320.5 176,-314.5 176,-308.5 176,-308.5 176,-172.5 176,-172.5 176,-166.5 182,-160.5 188,-160.5"/>
<text text-anchor="middle" x="243.107" y="-305.3" font-family="Times,serif" font-size="14.00">CommentsController</text>
<polyline fill="none" stroke="black" points="176,-298.5 310.214,-298.5 "/>
<text text-anchor="start" x="184" y="-283.3" font-family="Times,serif" font-size="14.00">create</text>
<text text-anchor="start" x="184" y="-269.3" font-family="Times,serif" font-size="14.00">destroy</text>
<text text-anchor="start" x="184" y="-255.3" font-family="Times,serif" font-size="14.00">index</text>
<polyline fill="none" stroke="black" points="176,-248.5 310.214,-248.5 "/>
<polyline fill="none" stroke="black" points="176,-224.5 310.214,-224.5 "/>
<text text-anchor="start" x="184" y="-209.3" font-family="Times,serif" font-size="14.00">_layout</text>
<text text-anchor="start" x="184" y="-195.3" font-family="Times,serif" font-size="14.00">comment_params</text>
<text text-anchor="start" x="184" y="-181.3" font-family="Times,serif" font-size="14.00">create_notification</text>
<text text-anchor="start" x="184" y="-167.3" font-family="Times,serif" font-size="14.00">set_post</text>
</g>
<!-- PostsController -->
<g id="node4" class="node"><title>PostsController</title>
<path fill="none" stroke="black" d="M60,-96.5C60,-96.5 139.117,-96.5 139.117,-96.5 145.117,-96.5 151.117,-102.5 151.117,-108.5 151.117,-108.5 151.117,-314.5 151.117,-314.5 151.117,-320.5 145.117,-326.5 139.117,-326.5 139.117,-326.5 60,-326.5 60,-326.5 54,-326.5 48,-320.5 48,-314.5 48,-314.5 48,-108.5 48,-108.5 48,-102.5 54,-96.5 60,-96.5"/>
<text text-anchor="middle" x="99.5586" y="-311.3" font-family="Times,serif" font-size="14.00">PostsController</text>
<polyline fill="none" stroke="black" points="48,-304.5 151.117,-304.5 "/>
<text text-anchor="start" x="56" y="-289.3" font-family="Times,serif" font-size="14.00">update</text>
<text text-anchor="start" x="56" y="-275.3" font-family="Times,serif" font-size="14.00">destroy</text>
<text text-anchor="start" x="56" y="-261.3" font-family="Times,serif" font-size="14.00">edit</text>
<text text-anchor="start" x="56" y="-247.3" font-family="Times,serif" font-size="14.00">index</text>
<text text-anchor="start" x="56" y="-233.3" font-family="Times,serif" font-size="14.00">like</text>
<text text-anchor="start" x="56" y="-219.3" font-family="Times,serif" font-size="14.00">new</text>
<text text-anchor="start" x="56" y="-205.3" font-family="Times,serif" font-size="14.00">show</text>
<text text-anchor="start" x="56" y="-191.3" font-family="Times,serif" font-size="14.00">create</text>
<polyline fill="none" stroke="black" points="48,-184.5 151.117,-184.5 "/>
<polyline fill="none" stroke="black" points="48,-160.5 151.117,-160.5 "/>
<text text-anchor="start" x="56" y="-145.3" font-family="Times,serif" font-size="14.00">_layout</text>
<text text-anchor="start" x="56" y="-131.3" font-family="Times,serif" font-size="14.00">owned_post</text>
<text text-anchor="start" x="56" y="-117.3" font-family="Times,serif" font-size="14.00">post_params</text>
<text text-anchor="start" x="56" y="-103.3" font-family="Times,serif" font-size="14.00">set_post</text>
</g>
<!-- ProfilesController -->
<g id="node5" class="node"><title>ProfilesController</title>
<path fill="none" stroke="black" d="M252,-352.5C252,-352.5 344.331,-352.5 344.331,-352.5 350.331,-352.5 356.331,-358.5 356.331,-364.5 356.331,-364.5 356.331,-500.5 356.331,-500.5 356.331,-506.5 350.331,-512.5 344.331,-512.5 344.331,-512.5 252,-512.5 252,-512.5 246,-512.5 240,-506.5 240,-500.5 240,-500.5 240,-364.5 240,-364.5 240,-358.5 246,-352.5 252,-352.5"/>
<text text-anchor="middle" x="298.166" y="-497.3" font-family="Times,serif" font-size="14.00">ProfilesController</text>
<polyline fill="none" stroke="black" points="240,-490.5 356.331,-490.5 "/>
<text text-anchor="start" x="248" y="-475.3" font-family="Times,serif" font-size="14.00">edit</text>
<text text-anchor="start" x="248" y="-461.3" font-family="Times,serif" font-size="14.00">show</text>
<text text-anchor="start" x="248" y="-447.3" font-family="Times,serif" font-size="14.00">update</text>
<polyline fill="none" stroke="black" points="240,-440.5 356.331,-440.5 "/>
<polyline fill="none" stroke="black" points="240,-416.5 356.331,-416.5 "/>
<text text-anchor="start" x="248" y="-401.3" font-family="Times,serif" font-size="14.00">_layout</text>
<text text-anchor="start" x="248" y="-387.3" font-family="Times,serif" font-size="14.00">owned_profile</text>
<text text-anchor="start" x="248" y="-373.3" font-family="Times,serif" font-size="14.00">profile_params</text>
<text text-anchor="start" x="248" y="-359.3" font-family="Times,serif" font-size="14.00">set_user</text>
</g>
<!-- RegistrationsController -->
<g id="node6" class="node"><title>RegistrationsController</title>
<path fill="none" stroke="black" d="M188,-0.5C188,-0.5 315.276,-0.5 315.276,-0.5 321.276,-0.5 327.276,-6.5 327.276,-12.5 327.276,-12.5 327.276,-108.5 327.276,-108.5 327.276,-114.5 321.276,-120.5 315.276,-120.5 315.276,-120.5 188,-120.5 188,-120.5 182,-120.5 176,-114.5 176,-108.5 176,-108.5 176,-12.5 176,-12.5 176,-6.5 182,-0.5 188,-0.5"/>
<text text-anchor="middle" x="251.638" y="-105.3" font-family="Times,serif" font-size="14.00">RegistrationsController</text>
<polyline fill="none" stroke="black" points="176,-98.5 327.276,-98.5 "/>
<polyline fill="none" stroke="black" points="176,-74.5 327.276,-74.5 "/>
<polyline fill="none" stroke="black" points="176,-50.5 327.276,-50.5 "/>
<text text-anchor="start" x="184" y="-35.3" font-family="Times,serif" font-size="14.00">_layout</text>
<text text-anchor="start" x="184" y="-21.3" font-family="Times,serif" font-size="14.00">account_update_params</text>
<text text-anchor="start" x="184" y="-7.3" font-family="Times,serif" font-size="14.00">sign_up_params</text>
</g>
</g>
</svg>
