<?xml version="1.0" encoding="UTF-8" standalone="no"?>
<!DOCTYPE svg PUBLIC "-//W3C//DTD SVG 1.1//EN"
 "http://www.w3.org/Graphics/SVG/1.1/DTD/svg11.dtd">
<!-- Generated by graphviz version 2.36.0 (20140111.2315)
 -->
<!-- Title: models_diagram Pages: 1 -->
<svg width="654pt" height="242pt"
 viewBox="0.00 0.00 654.00 242.00" xmlns="http://www.w3.org/2000/svg" xmlns:xlink="http://www.w3.org/1999/xlink">
<g id="graph0" class="graph" transform="scale(1 1) rotate(0) translate(4 238)">
<title>models_diagram</title>
<polygon fill="none" stroke="none" points="-4,4 -4,-238 650,-238 650,4 -4,4"/>
<!-- _diagram_info -->
<g id="node1" class="node"><title>_diagram_info</title>
<text text-anchor="start" x="7.55029" y="-219.1" font-family="Times,serif" font-size="13.00">Models diagram</text>
<text text-anchor="start" x="7.55029" y="-206.1" font-family="Times,serif" font-size="13.00">Date: Jan 01 2017 &#45; 16:08</text>
<text text-anchor="start" x="7.55029" y="-193.1" font-family="Times,serif" font-size="13.00">Migration version: 20170101142920</text>
<text text-anchor="start" x="7.55029" y="-180.1" font-family="Times,serif" font-size="13.00">Generated by RailRoady 1.5.2</text>
<text text-anchor="start" x="7.55029" y="-167.1" font-family="Times,serif" font-size="13.00">http://railroady.prestonlee.com</text>
</g>
<!-- ApplicationRecord -->
<g id="node2" class="node"><title>ApplicationRecord</title>
<ellipse fill="none" stroke="black" cx="302" cy="-197" rx="77.094" ry="18"/>
<text text-anchor="middle" x="302" y="-192.8" font-family="Times,serif" font-size="14.00">ApplicationRecord</text>
</g>
<!-- Comment -->
<g id="node3" class="node"><title>Comment</title>
<ellipse fill="none" stroke="black" cx="293" cy="-18" rx="44.4828" ry="18"/>
<text text-anchor="middle" x="293" y="-13.8" font-family="Times,serif" font-size="14.00">Comment</text>
</g>
<!-- Notification -->
<g id="node4" class="node"><title>Notification</title>
<ellipse fill="none" stroke="black" cx="594" cy="-18" rx="52.0335" ry="18"/>
<text text-anchor="middle" x="594" y="-13.8" font-family="Times,serif" font-size="14.00">Notification</text>
</g>
<!-- Post -->
<g id="node5" class="node"><title>Post</title>
<ellipse fill="none" stroke="black" cx="474" cy="-104" rx="27" ry="18"/>
<text text-anchor="middle" x="474" y="-99.8" font-family="Times,serif" font-size="14.00">Post</text>
</g>
<!-- Post&#45;&gt;Comment -->
<g id="edge2" class="edge"><title>Post&#45;&gt;Comment</title>
<path fill="none" stroke="#4d8075" d="M445.213,-89.6404C414.141,-75.22 364.534,-52.198 330.448,-36.379"/>
<ellipse fill="none" stroke="#4d8075" cx="448.898" cy="-91.3503" rx="4.00002" ry="4.00002"/>
<polygon fill="#4d8075" stroke="#4d8075" points="330.344,-36.3311 323.168,-28.0395 325.809,-34.2262 321.273,-32.1214 321.273,-32.1214 321.273,-32.1214 325.809,-34.2262 319.379,-36.2032 330.344,-36.3311 330.344,-36.3311"/>
</g>
<!-- Post&#45;&gt;Notification -->
<g id="edge3" class="edge"><title>Post&#45;&gt;Notification</title>
<path fill="none" stroke="#2d85d0" d="M498.592,-85.7858C517.413,-72.6111 543.471,-54.37 563.6,-40.28"/>
<ellipse fill="none" stroke="#2d85d0" cx="495.242" cy="-88.1305" rx="4.00002" ry="4.00002"/>
<polygon fill="#2d85d0" stroke="#2d85d0" points="563.633,-40.2571 574.406,-38.209 567.729,-37.3897 571.825,-34.5224 571.825,-34.5224 571.825,-34.5224 567.729,-37.3897 569.245,-30.8358 563.633,-40.2571 563.633,-40.2571"/>
</g>
<!-- ActsAsVotable::Vote -->
<g id="node7" class="node"><title>ActsAsVotable::Vote</title>
<ellipse fill="none" stroke="black" cx="440" cy="-18" rx="83.4456" ry="18"/>
<text text-anchor="middle" x="440" y="-13.8" font-family="Times,serif" font-size="14.00">ActsAsVotable::Vote</text>
</g>
<!-- Post&#45;&gt;ActsAsVotable::Vote -->
<g id="edge1" class="edge"><title>Post&#45;&gt;ActsAsVotable::Vote</title>
<path fill="none" stroke="#b8a5b4" d="M464.197,-78.782C459.969,-68.3351 455.012,-56.088 450.689,-45.4084"/>
<ellipse fill="none" stroke="#b8a5b4" cx="465.782" cy="-82.6965" rx="4.00001" ry="4.00001"/>
<polygon fill="#b8a5b4" stroke="#b8a5b4" points="450.689,-45.4074 451.108,-34.4495 448.813,-40.7727 446.937,-36.1379 446.937,-36.1379 446.937,-36.1379 448.813,-40.7727 442.766,-37.8263 450.689,-45.4074 450.689,-45.4074"/>
<text text-anchor="middle" x="485.438" y="-56.8" font-family="Times,serif" font-size="14.00">votes_for</text>
</g>
<!-- User -->
<g id="node6" class="node"><title>User</title>
<ellipse fill="none" stroke="black" cx="424" cy="-197" rx="27" ry="18"/>
<text text-anchor="middle" x="424" y="-192.8" font-family="Times,serif" font-size="14.00">User</text>
</g>
<!-- User&#45;&gt;Comment -->
<g id="edge6" class="edge"><title>User&#45;&gt;Comment</title>
<path fill="none" stroke="#68dbc5" d="M407.633,-173.886C383.084,-140.716 336.88,-78.2889 311.265,-43.6789"/>
<ellipse fill="none" stroke="#68dbc5" cx="410.224" cy="-177.387" rx="4.00002" ry="4.00002"/>
<polygon fill="#68dbc5" stroke="#68dbc5" points="311.171,-43.5519 308.839,-32.8368 308.197,-39.5329 305.222,-35.5139 305.222,-35.5139 305.222,-35.5139 308.197,-39.5329 301.605,-38.1909 311.171,-43.5519 311.171,-43.5519"/>
</g>
<!-- User&#45;&gt;Notification -->
<g id="edge7" class="edge"><title>User&#45;&gt;Notification</title>
<path fill="none" stroke="#0af8de" d="M447.654,-177.539C465.508,-163.164 490.224,-142.305 510,-122 534.446,-96.9 559.445,-65.3387 575.74,-43.8116"/>
<ellipse fill="none" stroke="#0af8de" cx="444.06" cy="-180.408" rx="4.00002" ry="4.00002"/>
<polygon fill="#0af8de" stroke="#0af8de" points="575.744,-43.8056 585.346,-38.5092 578.746,-39.8067 581.747,-35.8078 581.747,-35.8078 581.747,-35.8078 578.746,-39.8067 578.148,-33.1065 575.744,-43.8056 575.744,-43.8056"/>
</g>
<!-- User&#45;&gt;Post -->
<g id="edge5" class="edge"><title>User&#45;&gt;Post</title>
<path fill="none" stroke="#31acdf" d="M436.803,-172.699C443.945,-159.701 452.846,-143.501 460.15,-130.207"/>
<ellipse fill="none" stroke="#31acdf" cx="434.865" cy="-176.225" rx="4.00002" ry="4.00002"/>
<polygon fill="#31acdf" stroke="#31acdf" points="460.323,-129.892 469.082,-123.295 462.731,-125.51 465.138,-121.128 465.138,-121.128 465.138,-121.128 462.731,-125.51 461.194,-118.961 460.323,-129.892 460.323,-129.892"/>
</g>
<!-- User&#45;&gt;ActsAsVotable::Vote -->
<g id="edge4" class="edge"><title>User&#45;&gt;ActsAsVotable::Vote</title>
<path fill="none" stroke="#3c6fa6" d="M415.597,-171.754C408.997,-149.332 401.924,-115.168 408.448,-86 411.637,-71.7433 418.211,-56.9432 424.537,-44.8906"/>
<ellipse fill="none" stroke="#3c6fa6" cx="416.797" cy="-175.632" rx="4.00001" ry="4.00001"/>
<polygon fill="#3c6fa6" stroke="#3c6fa6" points="424.673,-44.6416 433.432,-38.0428 427.08,-40.2591 429.487,-35.8765 429.487,-35.8765 429.487,-35.8765 427.08,-40.2591 425.543,-33.7103 424.673,-44.6416 424.673,-44.6416"/>
<text text-anchor="middle" x="422.776" y="-99.8" font-family="Times,serif" font-size="14.00">votes</text>
</g>
</g>
</svg>
