<?xml version="1.0" encoding="UTF-8" standalone="no"?>
<!DOCTYPE svg PUBLIC "-//W3C//DTD SVG 1.1//EN"
 "http://www.w3.org/Graphics/SVG/1.1/DTD/svg11.dtd">
<!-- Generated by graphviz version 2.36.0 (20140111.2315)
 -->
<!-- Title: models_diagram Pages: 1 -->
<svg width="808pt" height="710pt"
 viewBox="0.00 0.00 808.00 710.00" xmlns="http://www.w3.org/2000/svg" xmlns:xlink="http://www.w3.org/1999/xlink">
<g id="graph0" class="graph" transform="scale(1 1) rotate(0) translate(4 706)">
<title>models_diagram</title>
<polygon fill="none" stroke="none" points="-4,4 -4,-706 804,-706 804,4 -4,4"/>
<!-- _diagram_info -->
<g id="node1" class="node"><title>_diagram_info</title>
<text text-anchor="start" x="7.55029" y="-575.1" font-family="Times,serif" font-size="13.00">Models diagram</text>
<text text-anchor="start" x="7.55029" y="-562.1" font-family="Times,serif" font-size="13.00">Date: Jan 01 2017 &#45; 16:08</text>
<text text-anchor="start" x="7.55029" y="-549.1" font-family="Times,serif" font-size="13.00">Migration version: 20170101142920</text>
<text text-anchor="start" x="7.55029" y="-536.1" font-family="Times,serif" font-size="13.00">Generated by RailRoady 1.5.2</text>
<text text-anchor="start" x="7.55029" y="-523.1" font-family="Times,serif" font-size="13.00">http://railroady.prestonlee.com</text>
</g>
<!-- ApplicationRecord -->
<g id="node2" class="node"><title>ApplicationRecord</title>
<ellipse fill="none" stroke="black" cx="302" cy="-553" rx="77.094" ry="18"/>
<text text-anchor="middle" x="302" y="-548.8" font-family="Times,serif" font-size="14.00">ApplicationRecord</text>
</g>
<!-- Comment -->
<g id="node3" class="node"><title>Comment</title>
<path fill="none" stroke="black" d="M332.495,-22C332.495,-22 441.505,-22 441.505,-22 447.505,-22 453.505,-28 453.505,-34 453.505,-34 453.505,-124 453.505,-124 453.505,-130 447.505,-136 441.505,-136 441.505,-136 332.495,-136 332.495,-136 326.495,-136 320.495,-130 320.495,-124 320.495,-124 320.495,-34 320.495,-34 320.495,-28 326.495,-22 332.495,-22"/>
<text text-anchor="middle" x="387" y="-120.8" font-family="Times,serif" font-size="14.00">Comment</text>
<polyline fill="none" stroke="black" points="320.495,-114 453.505,-114 "/>
<text text-anchor="start" x="328.495" y="-98.8" font-family="Times,serif" font-size="14.00">id :INTEGER</text>
<text text-anchor="start" x="328.495" y="-84.8" font-family="Times,serif" font-size="14.00">user_id :integer</text>
<text text-anchor="start" x="328.495" y="-70.8" font-family="Times,serif" font-size="14.00">post_id :integer</text>
<text text-anchor="start" x="328.495" y="-56.8" font-family="Times,serif" font-size="14.00">content :text</text>
<text text-anchor="start" x="328.495" y="-42.8" font-family="Times,serif" font-size="14.00">created_at :datetime</text>
<text text-anchor="start" x="328.495" y="-28.8" font-family="Times,serif" font-size="14.00">updated_at :datetime</text>
</g>
<!-- Notification -->
<g id="node4" class="node"><title>Notification</title>
<path fill="none" stroke="black" d="M669.036,-1C669.036,-1 788.964,-1 788.964,-1 794.964,-1 800.964,-7 800.964,-13 800.964,-13 800.964,-145 800.964,-145 800.964,-151 794.964,-157 788.964,-157 788.964,-157 669.036,-157 669.036,-157 663.036,-157 657.036,-151 657.036,-145 657.036,-145 657.036,-13 657.036,-13 657.036,-7 663.036,-1 669.036,-1"/>
<text text-anchor="middle" x="729" y="-141.8" font-family="Times,serif" font-size="14.00">Notification</text>
<polyline fill="none" stroke="black" points="657.036,-135 800.964,-135 "/>
<text text-anchor="start" x="665.036" y="-119.8" font-family="Times,serif" font-size="14.00">updated_at :datetime</text>
<text text-anchor="start" x="665.036" y="-105.8" font-family="Times,serif" font-size="14.00">user_id :integer</text>
<text text-anchor="start" x="665.036" y="-91.8" font-family="Times,serif" font-size="14.00">notified_by_id :integer</text>
<text text-anchor="start" x="665.036" y="-77.8" font-family="Times,serif" font-size="14.00">post_id :integer</text>
<text text-anchor="start" x="665.036" y="-63.8" font-family="Times,serif" font-size="14.00">identifier :integer</text>
<text text-anchor="start" x="665.036" y="-49.8" font-family="Times,serif" font-size="14.00">notice_type :varchar</text>
<text text-anchor="start" x="665.036" y="-35.8" font-family="Times,serif" font-size="14.00">read :boolean</text>
<text text-anchor="start" x="665.036" y="-21.8" font-family="Times,serif" font-size="14.00">created_at :datetime</text>
<text text-anchor="start" x="665.036" y="-7.8" font-family="Times,serif" font-size="14.00">id :INTEGER</text>
</g>
<!-- Post -->
<g id="node5" class="node"><title>Post</title>
<path fill="none" stroke="black" d="M518.563,-209C518.563,-209 673.437,-209 673.437,-209 679.437,-209 685.437,-215 685.437,-221 685.437,-221 685.437,-353 685.437,-353 685.437,-359 679.437,-365 673.437,-365 673.437,-365 518.563,-365 518.563,-365 512.563,-365 506.563,-359 506.563,-353 506.563,-353 506.563,-221 506.563,-221 506.563,-215 512.563,-209 518.563,-209"/>
<text text-anchor="middle" x="596" y="-349.8" font-family="Times,serif" font-size="14.00">Post</text>
<polyline fill="none" stroke="black" points="506.563,-343 685.437,-343 "/>
<text text-anchor="start" x="514.563" y="-327.8" font-family="Times,serif" font-size="14.00">user_id :integer</text>
<text text-anchor="start" x="514.563" y="-313.8" font-family="Times,serif" font-size="14.00">caption :varchar</text>
<text text-anchor="start" x="514.563" y="-299.8" font-family="Times,serif" font-size="14.00">created_at :datetime</text>
<text text-anchor="start" x="514.563" y="-285.8" font-family="Times,serif" font-size="14.00">updated_at :datetime</text>
<text text-anchor="start" x="514.563" y="-271.8" font-family="Times,serif" font-size="14.00">image_file_name :varchar</text>
<text text-anchor="start" x="514.563" y="-257.8" font-family="Times,serif" font-size="14.00">image_content_type :varchar</text>
<text text-anchor="start" x="514.563" y="-243.8" font-family="Times,serif" font-size="14.00">image_file_size :integer</text>
<text text-anchor="start" x="514.563" y="-229.8" font-family="Times,serif" font-size="14.00">image_updated_at :datetime</text>
<text text-anchor="start" x="514.563" y="-215.8" font-family="Times,serif" font-size="14.00">id :INTEGER</text>
</g>
<!-- Post&#45;&gt;Comment -->
<g id="edge2" class="edge"><title>Post&#45;&gt;Comment</title>
<path fill="none" stroke="#95b354" d="M507.866,-202.836C492.468,-188.016 476.685,-172.637 462,-158 457.262,-153.278 452.391,-148.36 447.515,-143.392"/>
<ellipse fill="none" stroke="#95b354" cx="511.09" cy="-205.934" rx="4.00002" ry="4.00002"/>
<polygon fill="#95b354" stroke="#95b354" points="447.374,-143.247 443.603,-132.95 443.879,-139.671 440.384,-136.095 440.384,-136.095 440.384,-136.095 443.879,-139.671 437.166,-139.241 447.374,-143.247 447.374,-143.247"/>
</g>
<!-- Post&#45;&gt;Notification -->
<g id="edge3" class="edge"><title>Post&#45;&gt;Notification</title>
<path fill="none" stroke="#9f555f" d="M650.28,-201.927C657.995,-189.978 665.937,-177.677 673.671,-165.698"/>
<ellipse fill="none" stroke="#9f555f" cx="648.072" cy="-205.347" rx="4.00002" ry="4.00002"/>
<polygon fill="#9f555f" stroke="#9f555f" points="673.836,-165.442 683.041,-159.482 676.548,-161.242 679.26,-157.041 679.26,-157.041 679.26,-157.041 676.548,-161.242 675.479,-154.6 673.836,-165.442 673.836,-165.442"/>
</g>
<!-- ActsAsVotable::Vote -->
<g id="node7" class="node"><title>ActsAsVotable::Vote</title>
<ellipse fill="none" stroke="black" cx="555" cy="-79" rx="83.4456" ry="18"/>
<text text-anchor="middle" x="555" y="-74.8" font-family="Times,serif" font-size="14.00">ActsAsVotable::Vote</text>
</g>
<!-- Post&#45;&gt;ActsAsVotable::Vote -->
<g id="edge1" class="edge"><title>Post&#45;&gt;ActsAsVotable::Vote</title>
<path fill="none" stroke="#89db21" d="M578.992,-200.543C572.34,-167.123 565.183,-131.164 560.434,-107.304"/>
<ellipse fill="none" stroke="#89db21" cx="579.836" cy="-204.784" rx="4.00001" ry="4.00001"/>
<polygon fill="#89db21" stroke="#89db21" points="560.384,-107.053 562.846,-96.3665 559.408,-102.149 558.432,-97.245 558.432,-97.245 558.432,-97.245 559.408,-102.149 554.019,-98.1234 560.384,-107.053 560.384,-107.053"/>
<text text-anchor="middle" x="602.438" y="-178.8" font-family="Times,serif" font-size="14.00">votes_for</text>
</g>
<!-- User -->
<g id="node6" class="node"><title>User</title>
<path fill="none" stroke="black" d="M409.722,-405C409.722,-405 590.278,-405 590.278,-405 596.278,-405 602.278,-411 602.278,-417 602.278,-417 602.278,-689 602.278,-689 602.278,-695 596.278,-701 590.278,-701 590.278,-701 409.722,-701 409.722,-701 403.722,-701 397.722,-695 397.722,-689 397.722,-689 397.722,-417 397.722,-417 397.722,-411 403.722,-405 409.722,-405"/>
<text text-anchor="middle" x="500" y="-685.8" font-family="Times,serif" font-size="14.00">User</text>
<polyline fill="none" stroke="black" points="397.722,-679 602.278,-679 "/>
<text text-anchor="start" x="405.722" y="-663.8" font-family="Times,serif" font-size="14.00">bio :text</text>
<text text-anchor="start" x="405.722" y="-649.8" font-family="Times,serif" font-size="14.00">email :varchar</text>
<text text-anchor="start" x="405.722" y="-635.8" font-family="Times,serif" font-size="14.00">encrypted_password :varchar</text>
<text text-anchor="start" x="405.722" y="-621.8" font-family="Times,serif" font-size="14.00">reset_password_token :varchar</text>
<text text-anchor="start" x="405.722" y="-607.8" font-family="Times,serif" font-size="14.00">reset_password_sent_at :datetime</text>
<text text-anchor="start" x="405.722" y="-593.8" font-family="Times,serif" font-size="14.00">remember_created_at :datetime</text>
<text text-anchor="start" x="405.722" y="-579.8" font-family="Times,serif" font-size="14.00">sign_in_count :integer</text>
<text text-anchor="start" x="405.722" y="-565.8" font-family="Times,serif" font-size="14.00">current_sign_in_at :datetime</text>
<text text-anchor="start" x="405.722" y="-551.8" font-family="Times,serif" font-size="14.00">last_sign_in_at :datetime</text>
<text text-anchor="start" x="405.722" y="-537.8" font-family="Times,serif" font-size="14.00">current_sign_in_ip :varchar</text>
<text text-anchor="start" x="405.722" y="-523.8" font-family="Times,serif" font-size="14.00">last_sign_in_ip :varchar</text>
<text text-anchor="start" x="405.722" y="-509.8" font-family="Times,serif" font-size="14.00">created_at :datetime</text>
<text text-anchor="start" x="405.722" y="-495.8" font-family="Times,serif" font-size="14.00">updated_at :datetime</text>
<text text-anchor="start" x="405.722" y="-481.8" font-family="Times,serif" font-size="14.00">user_name :varchar</text>
<text text-anchor="start" x="405.722" y="-467.8" font-family="Times,serif" font-size="14.00">avatar_file_name :varchar</text>
<text text-anchor="start" x="405.722" y="-453.8" font-family="Times,serif" font-size="14.00">avatar_content_type :varchar</text>
<text text-anchor="start" x="405.722" y="-439.8" font-family="Times,serif" font-size="14.00">avatar_file_size :integer</text>
<text text-anchor="start" x="405.722" y="-425.8" font-family="Times,serif" font-size="14.00">avatar_updated_at :datetime</text>
<text text-anchor="start" x="405.722" y="-411.8" font-family="Times,serif" font-size="14.00">id :INTEGER</text>
</g>
<!-- User&#45;&gt;Comment -->
<g id="edge6" class="edge"><title>User&#45;&gt;Comment</title>
<path fill="none" stroke="#7e0a4c" d="M457.927,-397.187C456.938,-393.422 455.961,-389.689 455,-386 433.621,-303.937 413.074,-208.402 400.267,-146.199"/>
<ellipse fill="none" stroke="#7e0a4c" cx="458.954" cy="-401.086" rx="4.00001" ry="4.00001"/>
<polygon fill="#7e0a4c" stroke="#7e0a4c" points="400.211,-145.925 402.61,-135.225 399.207,-141.027 398.202,-136.129 398.202,-136.129 398.202,-136.129 399.207,-141.027 393.794,-137.033 400.211,-145.925 400.211,-145.925"/>
</g>
<!-- User&#45;&gt;Notification -->
<g id="edge7" class="edge"><title>User&#45;&gt;Notification</title>
<path fill="none" stroke="#ca7832" d="M608.618,-472.247C641.323,-442.597 673.846,-406.261 694,-366 724.851,-304.369 732.632,-226.235 733.239,-167.214"/>
<ellipse fill="none" stroke="#ca7832" cx="605.494" cy="-475.039" rx="4.00002" ry="4.00002"/>
<polygon fill="#ca7832" stroke="#ca7832" points="733.24,-167.169 737.776,-157.186 733.258,-162.169 733.276,-157.169 733.276,-157.169 733.276,-157.169 733.258,-162.169 728.776,-157.153 733.24,-167.169 733.24,-167.169"/>
</g>
<!-- User&#45;&gt;Post -->
<g id="edge5" class="edge"><title>User&#45;&gt;Post</title>
<path fill="none" stroke="#ef4c3b" d="M556.273,-397.249C559.042,-389.635 561.772,-382.126 564.427,-374.826"/>
<ellipse fill="none" stroke="#ef4c3b" cx="554.841" cy="-401.188" rx="4.00001" ry="4.00001"/>
<polygon fill="#ef4c3b" stroke="#ef4c3b" points="564.578,-374.409 572.225,-366.549 566.287,-369.71 567.996,-365.011 567.996,-365.011 567.996,-365.011 566.287,-369.71 563.767,-363.473 564.578,-374.409 564.578,-374.409"/>
</g>
<!-- User&#45;&gt;ActsAsVotable::Vote -->
<g id="edge4" class="edge"><title>User&#45;&gt;ActsAsVotable::Vote</title>
<path fill="none" stroke="#d11817" d="M460.714,-396.631C451.988,-336.63 450.038,-268.092 468.448,-208 480.803,-167.673 510.629,-128.599 531.806,-104.451"/>
<ellipse fill="none" stroke="#d11817" cx="461.33" cy="-400.704" rx="4.00001" ry="4.00001"/>
<polygon fill="#d11817" stroke="#d11817" points="531.943,-104.299 541.969,-99.8574 535.281,-100.576 538.618,-96.8533 538.618,-96.8533 538.618,-96.8533 535.281,-100.576 535.268,-93.8491 531.943,-104.299 531.943,-104.299"/>
<text text-anchor="middle" x="482.776" y="-282.8" font-family="Times,serif" font-size="14.00">votes</text>
</g>
</g>
</svg>
